<?xml version="1.0" encoding="UTF-8" standalone="no"?>
<!DOCTYPE svg PUBLIC "-//W3C//DTD SVG 1.1//EN"
 "http://www.w3.org/Graphics/SVG/1.1/DTD/svg11.dtd">
<!-- Generated by graphviz version 2.43.0 (0)
 -->
<!-- Title: %3 Pages: 1 -->
<svg width="181pt" height="260pt"
 viewBox="0.00 0.00 181.00 260.00" xmlns="http://www.w3.org/2000/svg" xmlns:xlink="http://www.w3.org/1999/xlink">
<g id="graph0" class="graph" transform="scale(1 1) rotate(0) translate(4 256)">
<title>%3</title>
<polygon fill="white" stroke="transparent" points="-4,4 -4,-256 177,-256 177,4 -4,4"/>
<!-- 1 -->
<g id="node1" class="node">
<title>1</title>
<ellipse fill="none" stroke="black" cx="82" cy="-234" rx="27" ry="18"/>
<text text-anchor="middle" x="82" y="-230.3" font-family="Times,serif" font-size="14.00">1</text>
</g>
<!-- 2 -->
<g id="node2" class="node">
<title>2</title>
<ellipse fill="none" stroke="black" cx="27" cy="-162" rx="27" ry="18"/>
<text text-anchor="middle" x="27" y="-158.3" font-family="Times,serif" font-size="14.00">2</text>
</g>
<!-- 1&#45;&gt;2 -->
<g id="edge1" class="edge">
<title>1&#45;&gt;2</title>
<path fill="none" stroke="black" d="M70.07,-217.81C62.79,-208.55 53.34,-196.52 45.15,-186.09"/>
<polygon fill="black" stroke="black" points="47.84,-183.86 38.91,-178.16 42.34,-188.18 47.84,-183.86"/>
</g>
<!-- 3 -->
<g id="node3" class="node">
<title>3</title>
<ellipse fill="none" stroke="black" cx="141" cy="-162" rx="27" ry="18"/>
<text text-anchor="middle" x="141" y="-158.3" font-family="Times,serif" font-size="14.00">3</text>
</g>
<!-- 1&#45;&gt;3 -->
<g id="edge2" class="edge">
<title>1&#45;&gt;3</title>
<path fill="none" stroke="black" d="M94.8,-217.81C102.61,-208.55 112.75,-196.52 121.53,-186.09"/>
<polygon fill="black" stroke="black" points="124.45,-188.06 128.22,-178.16 119.1,-183.55 124.45,-188.06"/>
</g>
<!-- 4 -->
<g id="node4" class="node">
<title>4</title>
<ellipse fill="none" stroke="black" cx="74" cy="-90" rx="27" ry="18"/>
<text text-anchor="middle" x="74" y="-86.3" font-family="Times,serif" font-size="14.00">4</text>
</g>
<!-- 1&#45;&gt;4 -->
<g id="edge3" class="edge">
<title>1&#45;&gt;4</title>
<path fill="none" stroke="black" d="M81.04,-215.87C79.67,-191.67 77.17,-147.21 75.54,-118.39"/>
<polygon fill="black" stroke="black" points="79.03,-117.98 74.97,-108.19 72.04,-118.37 79.03,-117.98"/>
</g>
<!-- 2&#45;&gt;4 -->
<g id="edge4" class="edge">
<title>2&#45;&gt;4</title>
<path fill="none" stroke="black" d="M37.67,-145.12C43.55,-136.34 50.99,-125.26 57.61,-115.42"/>
<polygon fill="black" stroke="black" points="60.71,-117.07 63.38,-106.82 54.9,-113.17 60.71,-117.07"/>
</g>
<!-- 6 -->
<g id="node6" class="node">
<title>6</title>
<ellipse fill="none" stroke="black" cx="74" cy="-18" rx="27" ry="18"/>
<text text-anchor="middle" x="74" y="-14.3" font-family="Times,serif" font-size="14.00">6</text>
</g>
<!-- 2&#45;&gt;6 -->
<g id="edge5" class="edge">
<title>2&#45;&gt;6</title>
<path fill="none" stroke="black" d="M26.76,-143.7C27.05,-125.34 29.06,-95.75 38,-72 41.94,-61.54 48.33,-51.12 54.65,-42.33"/>
<polygon fill="black" stroke="black" points="57.6,-44.22 60.84,-34.13 52.02,-40 57.6,-44.22"/>
</g>
<!-- 5 -->
<g id="node5" class="node">
<title>5</title>
<ellipse fill="none" stroke="black" cx="146" cy="-90" rx="27" ry="18"/>
<text text-anchor="middle" x="146" y="-86.3" font-family="Times,serif" font-size="14.00">5</text>
</g>
<!-- 3&#45;&gt;5 -->
<g id="edge6" class="edge">
<title>3&#45;&gt;5</title>
<path fill="none" stroke="black" d="M142.24,-143.7C142.79,-135.98 143.45,-126.71 144.06,-118.11"/>
<polygon fill="black" stroke="black" points="147.56,-118.33 144.78,-108.1 140.57,-117.83 147.56,-118.33"/>
</g>
<!-- 4&#45;&gt;6 -->
<g id="edge7" class="edge">
<title>4&#45;&gt;6</title>
<path fill="none" stroke="black" d="M74,-71.7C74,-63.98 74,-54.71 74,-46.11"/>
<polygon fill="black" stroke="black" points="77.5,-46.1 74,-36.1 70.5,-46.1 77.5,-46.1"/>
</g>
<!-- 5&#45;&gt;6 -->
<g id="edge8" class="edge">
<title>5&#45;&gt;6</title>
<path fill="none" stroke="black" d="M131.43,-74.83C121.25,-64.94 107.48,-51.55 95.97,-40.36"/>
<polygon fill="black" stroke="black" points="98.41,-37.85 88.8,-33.38 93.53,-42.87 98.41,-37.85"/>
</g>
</g>
</svg>
