<?xml version="1.0" encoding="utf-8" ?>
<svg baseProfile="full" height="2.2cm" version="1.1" width="10.0cm" xmlns="http://www.w3.org/2000/svg" xmlns:ev="http://www.w3.org/2001/xml-events" xmlns:xlink="http://www.w3.org/1999/xlink"><defs><marker id="arrow" markerHeight="10" markerUnits="strokeWidth" markerWidth="10" orient="auto" refX="0" refY="3"><path d="M0,0 L0,6 L9,3 z" fill="#000" /></marker></defs><text x="9.0cm" y="0.5cm">time</text><text x="0.2cm" y="1.35cm">c_0</text><text x="0.7cm" y="1.0499999999999998cm">p_0</text><rect fill="white" height="0.46cm" stroke="black" width="2.0cm" x="1.2cm" y="0.72cm" /><text x="1.4cm" y="1.075cm">0</text><rect fill="white" height="0.46cm" stroke="black" width="2.0cm" x="3.2cm" y="0.72cm" /><text x="3.4000000000000004cm" y="1.075cm">2</text><rect fill="white" height="0.46cm" stroke="black" width="2.0cm" x="5.2cm" y="0.72cm" /><text x="5.4cm" y="1.075cm">4</text><text x="0.7cm" y="1.5499999999999998cm">p_1</text><line stroke="black" stroke-dasharray="1 5" x1="1.2cm" x2="9.5cm" y1="1.2cm" y2="1.2cm" /><rect fill="white" height="0.46cm" stroke="black" width="2.0cm" x="3.5cm" y="1.22cm" /><text x="3.7cm" y="1.575cm">1</text><rect fill="white" height="0.46cm" stroke="black" width="2.0cm" x="5.5cm" y="1.22cm" /><text x="5.7cm" y="1.575cm">3</text><rect fill="white" height="0.46cm" stroke="black" width="2.0cm" x="7.5cm" y="1.22cm" /><text x="7.7cm" y="1.575cm">5</text><line stroke="black" stroke-dasharray="5 5" x1="0.7cm" x2="9.5cm" y1="1.7cm" y2="1.7cm" /><line stroke="black" x1="1.2cm" x2="9.5cm" y1="0.7cm" y2="0.7cm" /><line marker-end="url(#arrow)" stroke="black" x1="1.2cm" x2="9.5cm" y1="0.7cm" y2="0.7cm" /><line stroke="black" x1="1.2cm" x2="1.2cm" y1="0.7cm" y2="1.7cm" /></svg>
